<?xml version="1.0" encoding="utf-8" standalone="no"?>
<!DOCTYPE svg PUBLIC "-//W3C//DTD SVG 1.1//EN"
  "http://www.w3.org/Graphics/SVG/1.1/DTD/svg11.dtd">
<svg xmlns:xlink="http://www.w3.org/1999/xlink" width="864pt" height="576pt" viewBox="0 0 864 576" xmlns="http://www.w3.org/2000/svg" version="1.1">
 <metadata>
  <rdf:RDF xmlns:dc="http://purl.org/dc/elements/1.1/" xmlns:cc="http://creativecommons.org/ns#" xmlns:rdf="http://www.w3.org/1999/02/22-rdf-syntax-ns#">
   <cc:Work>
    <dc:type rdf:resource="http://purl.org/dc/dcmitype/StillImage"/>
    <dc:date>2025-02-27T13:41:27.624424</dc:date>
    <dc:format>image/svg+xml</dc:format>
    <dc:creator>
     <cc:Agent>
      <dc:title>Matplotlib v3.8.3, https://matplotlib.org/</dc:title>
     </cc:Agent>
    </dc:creator>
   </cc:Work>
  </rdf:RDF>
 </metadata>
 <defs>
  <style type="text/css">*{stroke-linejoin: round; stroke-linecap: butt}</style>
 </defs>
 <g id="figure_1">
  <g id="patch_1">
   <path d="M 0 576 
L 864 576 
L 864 0 
L 0 0 
z
" style="fill: #ffffff"/>
  </g>
  <g id="axes_1">
   <g id="patch_2">
    <path d="M 62.63 524.44 
L 853.2 524.44 
L 853.2 10.8 
L 62.63 10.8 
z
" style="fill: #ffffff"/>
   </g>
   <g id="matplotlib.axis_1">
    <g id="xtick_1">
     <g id="line2d_1">
      <path d="M 91.305404 524.44 
L 91.305404 10.8 
" clip-path="url(#p484b5cb628)" style="fill: none; stroke: #b0b0b0; stroke-width: 0.8; stroke-linecap: square"/>
     </g>
     <g id="line2d_2">
      <defs>
       <path id="mc6ac949ea4" d="M 0 0 
L 0 3.5 
" style="stroke: #000000; stroke-width: 0.8"/>
      </defs>
      <g>
       <use xlink:href="#mc6ac949ea4" x="91.305404" y="524.44" style="stroke: #000000; stroke-width: 0.8"/>
      </g>
     </g>
     <g id="text_1">
      <!-- 0 -->
      <g transform="translate(88.124154 539.038437) scale(0.1 -0.1)">
       <defs>
        <path id="DejaVuSans-30" d="M 2034 4250 
Q 1547 4250 1301 3770 
Q 1056 3291 1056 2328 
Q 1056 1369 1301 889 
Q 1547 409 2034 409 
Q 2525 409 2770 889 
Q 3016 1369 3016 2328 
Q 3016 3291 2770 3770 
Q 2525 4250 2034 4250 
z
M 2034 4750 
Q 2819 4750 3233 4129 
Q 3647 3509 3647 2328 
Q 3647 1150 3233 529 
Q 2819 -91 2034 -91 
Q 1250 -91 836 529 
Q 422 1150 422 2328 
Q 422 3509 836 4129 
Q 1250 4750 2034 4750 
z
" transform="scale(0.015625)"/>
       </defs>
       <use xlink:href="#DejaVuSans-30"/>
      </g>
     </g>
    </g>
    <g id="xtick_2">
     <g id="line2d_3">
      <path d="M 236.497323 524.44 
L 236.497323 10.8 
" clip-path="url(#p484b5cb628)" style="fill: none; stroke: #b0b0b0; stroke-width: 0.8; stroke-linecap: square"/>
     </g>
     <g id="line2d_4">
      <g>
       <use xlink:href="#mc6ac949ea4" x="236.497323" y="524.44" style="stroke: #000000; stroke-width: 0.8"/>
      </g>
     </g>
     <g id="text_2">
      <!-- 20 -->
      <g transform="translate(230.134823 539.038437) scale(0.1 -0.1)">
       <defs>
        <path id="DejaVuSans-32" d="M 1228 531 
L 3431 531 
L 3431 0 
L 469 0 
L 469 531 
Q 828 903 1448 1529 
Q 2069 2156 2228 2338 
Q 2531 2678 2651 2914 
Q 2772 3150 2772 3378 
Q 2772 3750 2511 3984 
Q 2250 4219 1831 4219 
Q 1534 4219 1204 4116 
Q 875 4013 500 3803 
L 500 4441 
Q 881 4594 1212 4672 
Q 1544 4750 1819 4750 
Q 2544 4750 2975 4387 
Q 3406 4025 3406 3419 
Q 3406 3131 3298 2873 
Q 3191 2616 2906 2266 
Q 2828 2175 2409 1742 
Q 1991 1309 1228 531 
z
" transform="scale(0.015625)"/>
       </defs>
       <use xlink:href="#DejaVuSans-32"/>
       <use xlink:href="#DejaVuSans-30" x="63.623047"/>
      </g>
     </g>
    </g>
    <g id="xtick_3">
     <g id="line2d_5">
      <path d="M 381.689242 524.44 
L 381.689242 10.8 
" clip-path="url(#p484b5cb628)" style="fill: none; stroke: #b0b0b0; stroke-width: 0.8; stroke-linecap: square"/>
     </g>
     <g id="line2d_6">
      <g>
       <use xlink:href="#mc6ac949ea4" x="381.689242" y="524.44" style="stroke: #000000; stroke-width: 0.8"/>
      </g>
     </g>
     <g id="text_3">
      <!-- 40 -->
      <g transform="translate(375.326742 539.038437) scale(0.1 -0.1)">
       <defs>
        <path id="DejaVuSans-34" d="M 2419 4116 
L 825 1625 
L 2419 1625 
L 2419 4116 
z
M 2253 4666 
L 3047 4666 
L 3047 1625 
L 3713 1625 
L 3713 1100 
L 3047 1100 
L 3047 0 
L 2419 0 
L 2419 1100 
L 313 1100 
L 313 1709 
L 2253 4666 
z
" transform="scale(0.015625)"/>
       </defs>
       <use xlink:href="#DejaVuSans-34"/>
       <use xlink:href="#DejaVuSans-30" x="63.623047"/>
      </g>
     </g>
    </g>
    <g id="xtick_4">
     <g id="line2d_7">
      <path d="M 526.881162 524.44 
L 526.881162 10.8 
" clip-path="url(#p484b5cb628)" style="fill: none; stroke: #b0b0b0; stroke-width: 0.8; stroke-linecap: square"/>
     </g>
     <g id="line2d_8">
      <g>
       <use xlink:href="#mc6ac949ea4" x="526.881162" y="524.44" style="stroke: #000000; stroke-width: 0.8"/>
      </g>
     </g>
     <g id="text_4">
      <!-- 60 -->
      <g transform="translate(520.518662 539.038437) scale(0.1 -0.1)">
       <defs>
        <path id="DejaVuSans-36" d="M 2113 2584 
Q 1688 2584 1439 2293 
Q 1191 2003 1191 1497 
Q 1191 994 1439 701 
Q 1688 409 2113 409 
Q 2538 409 2786 701 
Q 3034 994 3034 1497 
Q 3034 2003 2786 2293 
Q 2538 2584 2113 2584 
z
M 3366 4563 
L 3366 3988 
Q 3128 4100 2886 4159 
Q 2644 4219 2406 4219 
Q 1781 4219 1451 3797 
Q 1122 3375 1075 2522 
Q 1259 2794 1537 2939 
Q 1816 3084 2150 3084 
Q 2853 3084 3261 2657 
Q 3669 2231 3669 1497 
Q 3669 778 3244 343 
Q 2819 -91 2113 -91 
Q 1303 -91 875 529 
Q 447 1150 447 2328 
Q 447 3434 972 4092 
Q 1497 4750 2381 4750 
Q 2619 4750 2861 4703 
Q 3103 4656 3366 4563 
z
" transform="scale(0.015625)"/>
       </defs>
       <use xlink:href="#DejaVuSans-36"/>
       <use xlink:href="#DejaVuSans-30" x="63.623047"/>
      </g>
     </g>
    </g>
    <g id="xtick_5">
     <g id="line2d_9">
      <path d="M 672.073081 524.44 
L 672.073081 10.8 
" clip-path="url(#p484b5cb628)" style="fill: none; stroke: #b0b0b0; stroke-width: 0.8; stroke-linecap: square"/>
     </g>
     <g id="line2d_10">
      <g>
       <use xlink:href="#mc6ac949ea4" x="672.073081" y="524.44" style="stroke: #000000; stroke-width: 0.8"/>
      </g>
     </g>
     <g id="text_5">
      <!-- 80 -->
      <g transform="translate(665.710581 539.038437) scale(0.1 -0.1)">
       <defs>
        <path id="DejaVuSans-38" d="M 2034 2216 
Q 1584 2216 1326 1975 
Q 1069 1734 1069 1313 
Q 1069 891 1326 650 
Q 1584 409 2034 409 
Q 2484 409 2743 651 
Q 3003 894 3003 1313 
Q 3003 1734 2745 1975 
Q 2488 2216 2034 2216 
z
M 1403 2484 
Q 997 2584 770 2862 
Q 544 3141 544 3541 
Q 544 4100 942 4425 
Q 1341 4750 2034 4750 
Q 2731 4750 3128 4425 
Q 3525 4100 3525 3541 
Q 3525 3141 3298 2862 
Q 3072 2584 2669 2484 
Q 3125 2378 3379 2068 
Q 3634 1759 3634 1313 
Q 3634 634 3220 271 
Q 2806 -91 2034 -91 
Q 1263 -91 848 271 
Q 434 634 434 1313 
Q 434 1759 690 2068 
Q 947 2378 1403 2484 
z
M 1172 3481 
Q 1172 3119 1398 2916 
Q 1625 2713 2034 2713 
Q 2441 2713 2670 2916 
Q 2900 3119 2900 3481 
Q 2900 3844 2670 4047 
Q 2441 4250 2034 4250 
Q 1625 4250 1398 4047 
Q 1172 3844 1172 3481 
z
" transform="scale(0.015625)"/>
       </defs>
       <use xlink:href="#DejaVuSans-38"/>
       <use xlink:href="#DejaVuSans-30" x="63.623047"/>
      </g>
     </g>
    </g>
    <g id="xtick_6">
     <g id="line2d_11">
      <path d="M 817.265 524.44 
L 817.265 10.8 
" clip-path="url(#p484b5cb628)" style="fill: none; stroke: #b0b0b0; stroke-width: 0.8; stroke-linecap: square"/>
     </g>
     <g id="line2d_12">
      <g>
       <use xlink:href="#mc6ac949ea4" x="817.265" y="524.44" style="stroke: #000000; stroke-width: 0.8"/>
      </g>
     </g>
     <g id="text_6">
      <!-- 100 -->
      <g transform="translate(807.72125 539.038437) scale(0.1 -0.1)">
       <defs>
        <path id="DejaVuSans-31" d="M 794 531 
L 1825 531 
L 1825 4091 
L 703 3866 
L 703 4441 
L 1819 4666 
L 2450 4666 
L 2450 531 
L 3481 531 
L 3481 0 
L 794 0 
L 794 531 
z
" transform="scale(0.015625)"/>
       </defs>
       <use xlink:href="#DejaVuSans-31"/>
       <use xlink:href="#DejaVuSans-30" x="63.623047"/>
       <use xlink:href="#DejaVuSans-30" x="127.246094"/>
      </g>
     </g>
    </g>
    <g id="text_7">
     <!-- Original Rank (d) -->
     <g transform="translate(398.681875 561.755937) scale(0.14 -0.14)">
      <defs>
       <path id="DejaVuSans-4f" d="M 2522 4238 
Q 1834 4238 1429 3725 
Q 1025 3213 1025 2328 
Q 1025 1447 1429 934 
Q 1834 422 2522 422 
Q 3209 422 3611 934 
Q 4013 1447 4013 2328 
Q 4013 3213 3611 3725 
Q 3209 4238 2522 4238 
z
M 2522 4750 
Q 3503 4750 4090 4092 
Q 4678 3434 4678 2328 
Q 4678 1225 4090 567 
Q 3503 -91 2522 -91 
Q 1538 -91 948 565 
Q 359 1222 359 2328 
Q 359 3434 948 4092 
Q 1538 4750 2522 4750 
z
" transform="scale(0.015625)"/>
       <path id="DejaVuSans-72" d="M 2631 2963 
Q 2534 3019 2420 3045 
Q 2306 3072 2169 3072 
Q 1681 3072 1420 2755 
Q 1159 2438 1159 1844 
L 1159 0 
L 581 0 
L 581 3500 
L 1159 3500 
L 1159 2956 
Q 1341 3275 1631 3429 
Q 1922 3584 2338 3584 
Q 2397 3584 2469 3576 
Q 2541 3569 2628 3553 
L 2631 2963 
z
" transform="scale(0.015625)"/>
       <path id="DejaVuSans-69" d="M 603 3500 
L 1178 3500 
L 1178 0 
L 603 0 
L 603 3500 
z
M 603 4863 
L 1178 4863 
L 1178 4134 
L 603 4134 
L 603 4863 
z
" transform="scale(0.015625)"/>
       <path id="DejaVuSans-67" d="M 2906 1791 
Q 2906 2416 2648 2759 
Q 2391 3103 1925 3103 
Q 1463 3103 1205 2759 
Q 947 2416 947 1791 
Q 947 1169 1205 825 
Q 1463 481 1925 481 
Q 2391 481 2648 825 
Q 2906 1169 2906 1791 
z
M 3481 434 
Q 3481 -459 3084 -895 
Q 2688 -1331 1869 -1331 
Q 1566 -1331 1297 -1286 
Q 1028 -1241 775 -1147 
L 775 -588 
Q 1028 -725 1275 -790 
Q 1522 -856 1778 -856 
Q 2344 -856 2625 -561 
Q 2906 -266 2906 331 
L 2906 616 
Q 2728 306 2450 153 
Q 2172 0 1784 0 
Q 1141 0 747 490 
Q 353 981 353 1791 
Q 353 2603 747 3093 
Q 1141 3584 1784 3584 
Q 2172 3584 2450 3431 
Q 2728 3278 2906 2969 
L 2906 3500 
L 3481 3500 
L 3481 434 
z
" transform="scale(0.015625)"/>
       <path id="DejaVuSans-6e" d="M 3513 2113 
L 3513 0 
L 2938 0 
L 2938 2094 
Q 2938 2591 2744 2837 
Q 2550 3084 2163 3084 
Q 1697 3084 1428 2787 
Q 1159 2491 1159 1978 
L 1159 0 
L 581 0 
L 581 3500 
L 1159 3500 
L 1159 2956 
Q 1366 3272 1645 3428 
Q 1925 3584 2291 3584 
Q 2894 3584 3203 3211 
Q 3513 2838 3513 2113 
z
" transform="scale(0.015625)"/>
       <path id="DejaVuSans-61" d="M 2194 1759 
Q 1497 1759 1228 1600 
Q 959 1441 959 1056 
Q 959 750 1161 570 
Q 1363 391 1709 391 
Q 2188 391 2477 730 
Q 2766 1069 2766 1631 
L 2766 1759 
L 2194 1759 
z
M 3341 1997 
L 3341 0 
L 2766 0 
L 2766 531 
Q 2569 213 2275 61 
Q 1981 -91 1556 -91 
Q 1019 -91 701 211 
Q 384 513 384 1019 
Q 384 1609 779 1909 
Q 1175 2209 1959 2209 
L 2766 2209 
L 2766 2266 
Q 2766 2663 2505 2880 
Q 2244 3097 1772 3097 
Q 1472 3097 1187 3025 
Q 903 2953 641 2809 
L 641 3341 
Q 956 3463 1253 3523 
Q 1550 3584 1831 3584 
Q 2591 3584 2966 3190 
Q 3341 2797 3341 1997 
z
" transform="scale(0.015625)"/>
       <path id="DejaVuSans-6c" d="M 603 4863 
L 1178 4863 
L 1178 0 
L 603 0 
L 603 4863 
z
" transform="scale(0.015625)"/>
       <path id="DejaVuSans-20" transform="scale(0.015625)"/>
       <path id="DejaVuSans-52" d="M 2841 2188 
Q 3044 2119 3236 1894 
Q 3428 1669 3622 1275 
L 4263 0 
L 3584 0 
L 2988 1197 
Q 2756 1666 2539 1819 
Q 2322 1972 1947 1972 
L 1259 1972 
L 1259 0 
L 628 0 
L 628 4666 
L 2053 4666 
Q 2853 4666 3247 4331 
Q 3641 3997 3641 3322 
Q 3641 2881 3436 2590 
Q 3231 2300 2841 2188 
z
M 1259 4147 
L 1259 2491 
L 2053 2491 
Q 2509 2491 2742 2702 
Q 2975 2913 2975 3322 
Q 2975 3731 2742 3939 
Q 2509 4147 2053 4147 
L 1259 4147 
z
" transform="scale(0.015625)"/>
       <path id="DejaVuSans-6b" d="M 581 4863 
L 1159 4863 
L 1159 1991 
L 2875 3500 
L 3609 3500 
L 1753 1863 
L 3688 0 
L 2938 0 
L 1159 1709 
L 1159 0 
L 581 0 
L 581 4863 
z
" transform="scale(0.015625)"/>
       <path id="DejaVuSans-28" d="M 1984 4856 
Q 1566 4138 1362 3434 
Q 1159 2731 1159 2009 
Q 1159 1288 1364 580 
Q 1569 -128 1984 -844 
L 1484 -844 
Q 1016 -109 783 600 
Q 550 1309 550 2009 
Q 550 2706 781 3412 
Q 1013 4119 1484 4856 
L 1984 4856 
z
" transform="scale(0.015625)"/>
       <path id="DejaVuSans-64" d="M 2906 2969 
L 2906 4863 
L 3481 4863 
L 3481 0 
L 2906 0 
L 2906 525 
Q 2725 213 2448 61 
Q 2172 -91 1784 -91 
Q 1150 -91 751 415 
Q 353 922 353 1747 
Q 353 2572 751 3078 
Q 1150 3584 1784 3584 
Q 2172 3584 2448 3432 
Q 2725 3281 2906 2969 
z
M 947 1747 
Q 947 1113 1208 752 
Q 1469 391 1925 391 
Q 2381 391 2643 752 
Q 2906 1113 2906 1747 
Q 2906 2381 2643 2742 
Q 2381 3103 1925 3103 
Q 1469 3103 1208 2742 
Q 947 2381 947 1747 
z
" transform="scale(0.015625)"/>
       <path id="DejaVuSans-29" d="M 513 4856 
L 1013 4856 
Q 1481 4119 1714 3412 
Q 1947 2706 1947 2009 
Q 1947 1309 1714 600 
Q 1481 -109 1013 -844 
L 513 -844 
Q 928 -128 1133 580 
Q 1338 1288 1338 2009 
Q 1338 2731 1133 3434 
Q 928 4138 513 4856 
z
" transform="scale(0.015625)"/>
      </defs>
      <use xlink:href="#DejaVuSans-4f"/>
      <use xlink:href="#DejaVuSans-72" x="78.710938"/>
      <use xlink:href="#DejaVuSans-69" x="119.824219"/>
      <use xlink:href="#DejaVuSans-67" x="147.607422"/>
      <use xlink:href="#DejaVuSans-69" x="211.083984"/>
      <use xlink:href="#DejaVuSans-6e" x="238.867188"/>
      <use xlink:href="#DejaVuSans-61" x="302.246094"/>
      <use xlink:href="#DejaVuSans-6c" x="363.525391"/>
      <use xlink:href="#DejaVuSans-20" x="391.308594"/>
      <use xlink:href="#DejaVuSans-52" x="423.095703"/>
      <use xlink:href="#DejaVuSans-61" x="490.328125"/>
      <use xlink:href="#DejaVuSans-6e" x="551.607422"/>
      <use xlink:href="#DejaVuSans-6b" x="614.986328"/>
      <use xlink:href="#DejaVuSans-20" x="672.896484"/>
      <use xlink:href="#DejaVuSans-28" x="704.683594"/>
      <use xlink:href="#DejaVuSans-64" x="743.697266"/>
      <use xlink:href="#DejaVuSans-29" x="807.173828"/>
     </g>
    </g>
   </g>
   <g id="matplotlib.axis_2">
    <g id="ytick_1">
     <g id="line2d_13">
      <path d="M 62.63 449.209899 
L 853.2 449.209899 
" clip-path="url(#p484b5cb628)" style="fill: none; stroke: #b0b0b0; stroke-width: 0.8; stroke-linecap: square"/>
     </g>
     <g id="line2d_14">
      <defs>
       <path id="m6cd7f2827d" d="M 0 0 
L -3.5 0 
" style="stroke: #000000; stroke-width: 0.8"/>
      </defs>
      <g>
       <use xlink:href="#m6cd7f2827d" x="62.63" y="449.209899" style="stroke: #000000; stroke-width: 0.8"/>
      </g>
     </g>
     <g id="text_8">
      <!-- −30 -->
      <g transform="translate(34.525312 453.009118) scale(0.1 -0.1)">
       <defs>
        <path id="DejaVuSans-2212" d="M 678 2272 
L 4684 2272 
L 4684 1741 
L 678 1741 
L 678 2272 
z
" transform="scale(0.015625)"/>
        <path id="DejaVuSans-33" d="M 2597 2516 
Q 3050 2419 3304 2112 
Q 3559 1806 3559 1356 
Q 3559 666 3084 287 
Q 2609 -91 1734 -91 
Q 1441 -91 1130 -33 
Q 819 25 488 141 
L 488 750 
Q 750 597 1062 519 
Q 1375 441 1716 441 
Q 2309 441 2620 675 
Q 2931 909 2931 1356 
Q 2931 1769 2642 2001 
Q 2353 2234 1838 2234 
L 1294 2234 
L 1294 2753 
L 1863 2753 
Q 2328 2753 2575 2939 
Q 2822 3125 2822 3475 
Q 2822 3834 2567 4026 
Q 2313 4219 1838 4219 
Q 1578 4219 1281 4162 
Q 984 4106 628 3988 
L 628 4550 
Q 988 4650 1302 4700 
Q 1616 4750 1894 4750 
Q 2613 4750 3031 4423 
Q 3450 4097 3450 3541 
Q 3450 3153 3228 2886 
Q 3006 2619 2597 2516 
z
" transform="scale(0.015625)"/>
       </defs>
       <use xlink:href="#DejaVuSans-2212"/>
       <use xlink:href="#DejaVuSans-33" x="83.789062"/>
       <use xlink:href="#DejaVuSans-30" x="147.412109"/>
      </g>
     </g>
    </g>
    <g id="ytick_2">
     <g id="line2d_15">
      <path d="M 62.63 345.444242 
L 853.2 345.444242 
" clip-path="url(#p484b5cb628)" style="fill: none; stroke: #b0b0b0; stroke-width: 0.8; stroke-linecap: square"/>
     </g>
     <g id="line2d_16">
      <g>
       <use xlink:href="#m6cd7f2827d" x="62.63" y="345.444242" style="stroke: #000000; stroke-width: 0.8"/>
      </g>
     </g>
     <g id="text_9">
      <!-- −20 -->
      <g transform="translate(34.525312 349.243461) scale(0.1 -0.1)">
       <use xlink:href="#DejaVuSans-2212"/>
       <use xlink:href="#DejaVuSans-32" x="83.789062"/>
       <use xlink:href="#DejaVuSans-30" x="147.412109"/>
      </g>
     </g>
    </g>
    <g id="ytick_3">
     <g id="line2d_17">
      <path d="M 62.63 241.678586 
L 853.2 241.678586 
" clip-path="url(#p484b5cb628)" style="fill: none; stroke: #b0b0b0; stroke-width: 0.8; stroke-linecap: square"/>
     </g>
     <g id="line2d_18">
      <g>
       <use xlink:href="#m6cd7f2827d" x="62.63" y="241.678586" style="stroke: #000000; stroke-width: 0.8"/>
      </g>
     </g>
     <g id="text_10">
      <!-- −10 -->
      <g transform="translate(34.525312 245.477805) scale(0.1 -0.1)">
       <use xlink:href="#DejaVuSans-2212"/>
       <use xlink:href="#DejaVuSans-31" x="83.789062"/>
       <use xlink:href="#DejaVuSans-30" x="147.412109"/>
      </g>
     </g>
    </g>
    <g id="ytick_4">
     <g id="line2d_19">
      <path d="M 62.63 137.912929 
L 853.2 137.912929 
" clip-path="url(#p484b5cb628)" style="fill: none; stroke: #b0b0b0; stroke-width: 0.8; stroke-linecap: square"/>
     </g>
     <g id="line2d_20">
      <g>
       <use xlink:href="#m6cd7f2827d" x="62.63" y="137.912929" style="stroke: #000000; stroke-width: 0.8"/>
      </g>
     </g>
     <g id="text_11">
      <!-- 0 -->
      <g transform="translate(49.2675 141.712148) scale(0.1 -0.1)">
       <use xlink:href="#DejaVuSans-30"/>
      </g>
     </g>
    </g>
    <g id="ytick_5">
     <g id="line2d_21">
      <path d="M 62.63 34.147273 
L 853.2 34.147273 
" clip-path="url(#p484b5cb628)" style="fill: none; stroke: #b0b0b0; stroke-width: 0.8; stroke-linecap: square"/>
     </g>
     <g id="line2d_22">
      <g>
       <use xlink:href="#m6cd7f2827d" x="62.63" y="34.147273" style="stroke: #000000; stroke-width: 0.8"/>
      </g>
     </g>
     <g id="text_12">
      <!-- 10 -->
      <g transform="translate(42.905 37.946491) scale(0.1 -0.1)">
       <use xlink:href="#DejaVuSans-31"/>
       <use xlink:href="#DejaVuSans-30" x="63.623047"/>
      </g>
     </g>
    </g>
    <g id="text_13">
     <!-- Rank Difference -->
     <g transform="translate(21.61375 323.520469) rotate(-90) scale(0.14 -0.14)">
      <defs>
       <path id="DejaVuSans-44" d="M 1259 4147 
L 1259 519 
L 2022 519 
Q 2988 519 3436 956 
Q 3884 1394 3884 2338 
Q 3884 3275 3436 3711 
Q 2988 4147 2022 4147 
L 1259 4147 
z
M 628 4666 
L 1925 4666 
Q 3281 4666 3915 4102 
Q 4550 3538 4550 2338 
Q 4550 1131 3912 565 
Q 3275 0 1925 0 
L 628 0 
L 628 4666 
z
" transform="scale(0.015625)"/>
       <path id="DejaVuSans-66" d="M 2375 4863 
L 2375 4384 
L 1825 4384 
Q 1516 4384 1395 4259 
Q 1275 4134 1275 3809 
L 1275 3500 
L 2222 3500 
L 2222 3053 
L 1275 3053 
L 1275 0 
L 697 0 
L 697 3053 
L 147 3053 
L 147 3500 
L 697 3500 
L 697 3744 
Q 697 4328 969 4595 
Q 1241 4863 1831 4863 
L 2375 4863 
z
" transform="scale(0.015625)"/>
       <path id="DejaVuSans-65" d="M 3597 1894 
L 3597 1613 
L 953 1613 
Q 991 1019 1311 708 
Q 1631 397 2203 397 
Q 2534 397 2845 478 
Q 3156 559 3463 722 
L 3463 178 
Q 3153 47 2828 -22 
Q 2503 -91 2169 -91 
Q 1331 -91 842 396 
Q 353 884 353 1716 
Q 353 2575 817 3079 
Q 1281 3584 2069 3584 
Q 2775 3584 3186 3129 
Q 3597 2675 3597 1894 
z
M 3022 2063 
Q 3016 2534 2758 2815 
Q 2500 3097 2075 3097 
Q 1594 3097 1305 2825 
Q 1016 2553 972 2059 
L 3022 2063 
z
" transform="scale(0.015625)"/>
       <path id="DejaVuSans-63" d="M 3122 3366 
L 3122 2828 
Q 2878 2963 2633 3030 
Q 2388 3097 2138 3097 
Q 1578 3097 1268 2742 
Q 959 2388 959 1747 
Q 959 1106 1268 751 
Q 1578 397 2138 397 
Q 2388 397 2633 464 
Q 2878 531 3122 666 
L 3122 134 
Q 2881 22 2623 -34 
Q 2366 -91 2075 -91 
Q 1284 -91 818 406 
Q 353 903 353 1747 
Q 353 2603 823 3093 
Q 1294 3584 2113 3584 
Q 2378 3584 2631 3529 
Q 2884 3475 3122 3366 
z
" transform="scale(0.015625)"/>
      </defs>
      <use xlink:href="#DejaVuSans-52"/>
      <use xlink:href="#DejaVuSans-61" x="67.232422"/>
      <use xlink:href="#DejaVuSans-6e" x="128.511719"/>
      <use xlink:href="#DejaVuSans-6b" x="191.890625"/>
      <use xlink:href="#DejaVuSans-20" x="249.800781"/>
      <use xlink:href="#DejaVuSans-44" x="281.587891"/>
      <use xlink:href="#DejaVuSans-69" x="358.589844"/>
      <use xlink:href="#DejaVuSans-66" x="386.373047"/>
      <use xlink:href="#DejaVuSans-66" x="421.578125"/>
      <use xlink:href="#DejaVuSans-65" x="456.783203"/>
      <use xlink:href="#DejaVuSans-72" x="518.306641"/>
      <use xlink:href="#DejaVuSans-65" x="557.169922"/>
      <use xlink:href="#DejaVuSans-6e" x="618.693359"/>
      <use xlink:href="#DejaVuSans-63" x="682.072266"/>
      <use xlink:href="#DejaVuSans-65" x="737.052734"/>
     </g>
    </g>
   </g>
   <g id="line2d_23">
    <path d="M 98.565 137.912929 
L 105.824596 137.912929 
L 113.084192 137.912929 
L 120.343788 137.912929 
L 127.603384 137.912929 
L 134.86298 137.912929 
L 142.122576 137.912929 
L 149.382172 137.912929 
L 156.641768 137.912929 
L 163.901364 137.912929 
L 171.16096 137.912929 
L 178.420556 137.912929 
L 185.680152 137.912929 
L 192.939747 137.912929 
L 200.199343 137.912929 
L 207.458939 137.912929 
L 214.718535 137.912929 
L 221.978131 137.912929 
L 229.237727 137.912929 
L 236.497323 137.912929 
L 243.756919 137.912929 
L 251.016515 137.912929 
L 258.276111 137.912929 
L 265.535707 137.912929 
L 272.795303 137.912929 
L 280.054899 137.912929 
L 287.314495 137.912929 
L 294.574091 137.912929 
L 301.833687 137.912929 
L 309.093283 137.912929 
L 316.352879 137.912929 
L 323.612475 137.912929 
L 330.872071 137.912929 
L 338.131667 137.912929 
L 345.391263 137.912929 
L 352.650859 137.912929 
L 359.910455 137.912929 
L 367.170051 137.912929 
L 374.429646 137.912929 
L 381.689242 137.912929 
L 388.948838 137.912929 
L 396.208434 137.912929 
L 403.46803 137.912929 
L 410.727626 137.912929 
L 417.987222 137.912929 
L 425.246818 137.912929 
L 432.506414 137.912929 
L 439.76601 137.912929 
L 447.025606 137.912929 
L 454.285202 137.912929 
L 461.544798 137.912929 
L 468.804394 137.912929 
L 476.06399 137.912929 
L 483.323586 137.912929 
L 490.583182 137.912929 
L 497.842778 137.912929 
L 505.102374 137.912929 
L 512.36197 137.912929 
L 519.621566 137.912929 
L 526.881162 137.912929 
L 534.140758 137.912929 
L 541.400354 137.912929 
L 548.659949 137.912929 
L 555.919545 137.912929 
L 563.179141 137.912929 
L 570.438737 137.912929 
L 577.698333 137.912929 
L 584.957929 137.912929 
L 592.217525 137.912929 
L 599.477121 137.912929 
L 606.736717 137.912929 
L 613.996313 137.912929 
L 621.255909 137.912929 
L 628.515505 137.912929 
L 635.775101 137.912929 
L 643.034697 137.912929 
L 650.294293 137.912929 
L 657.553889 137.912929 
L 664.813485 137.912929 
L 672.073081 137.912929 
L 679.332677 137.912929 
L 686.592273 137.912929 
L 693.851869 137.912929 
L 701.111465 137.912929 
L 708.371061 137.912929 
L 715.630657 137.912929 
L 722.890253 137.912929 
L 730.149848 137.912929 
L 737.409444 137.912929 
L 744.66904 137.912929 
L 751.928636 137.912929 
L 759.188232 137.912929 
L 766.447828 137.912929 
L 773.707424 137.912929 
L 780.96702 137.912929 
L 788.226616 137.912929 
L 795.486212 137.912929 
L 802.745808 137.912929 
L 810.005404 137.912929 
L 817.265 137.912929 
" clip-path="url(#p484b5cb628)" style="fill: none; stroke: #0000ff; stroke-width: 2; stroke-linecap: square"/>
   </g>
   <g id="line2d_24">
    <path d="M 98.565 137.912929 
L 105.824596 137.912929 
L 113.084192 137.912929 
L 120.343788 137.912929 
L 127.603384 137.912929 
L 134.86298 127.536364 
L 142.122576 127.536364 
L 149.382172 158.666061 
L 156.641768 117.159798 
L 163.901364 117.159798 
L 171.16096 117.159798 
L 178.420556 169.042626 
L 185.680152 169.042626 
L 192.939747 137.912929 
L 200.199343 137.912929 
L 207.458939 137.912929 
L 214.718535 137.912929 
L 221.978131 137.912929 
L 229.237727 137.912929 
L 236.497323 137.912929 
L 243.756919 137.912929 
L 251.016515 137.912929 
L 258.276111 127.536364 
L 265.535707 117.159798 
L 272.795303 106.783232 
L 280.054899 106.783232 
L 287.314495 106.783232 
L 294.574091 106.783232 
L 301.833687 106.783232 
L 309.093283 96.406667 
L 316.352879 96.406667 
L 323.612475 96.406667 
L 330.872071 96.406667 
L 338.131667 252.055152 
L 345.391263 241.678586 
L 352.650859 241.678586 
L 359.910455 96.406667 
L 367.170051 86.030101 
L 374.429646 86.030101 
L 381.689242 86.030101 
L 388.948838 86.030101 
L 396.208434 86.030101 
L 403.46803 75.653535 
L 410.727626 252.055152 
L 417.987222 86.030101 
L 425.246818 75.653535 
L 432.506414 65.27697 
L 439.76601 65.27697 
L 447.025606 65.27697 
L 454.285202 54.900404 
L 461.544798 272.808283 
L 468.804394 65.27697 
L 476.06399 283.184848 
L 483.323586 283.184848 
L 490.583182 75.653535 
L 497.842778 283.184848 
L 505.102374 86.030101 
L 512.36197 86.030101 
L 519.621566 86.030101 
L 526.881162 75.653535 
L 534.140758 75.653535 
L 541.400354 75.653535 
L 548.659949 303.93798 
L 555.919545 86.030101 
L 563.179141 86.030101 
L 570.438737 86.030101 
L 577.698333 86.030101 
L 584.957929 314.314545 
L 592.217525 96.406667 
L 599.477121 314.314545 
L 606.736717 106.783232 
L 613.996313 106.783232 
L 621.255909 106.783232 
L 628.515505 314.314545 
L 635.775101 117.159798 
L 643.034697 117.159798 
L 650.294293 117.159798 
L 657.553889 117.159798 
L 664.813485 117.159798 
L 672.073081 117.159798 
L 679.332677 355.820808 
L 686.592273 127.536364 
L 693.851869 127.536364 
L 701.111465 127.536364 
L 708.371061 127.536364 
L 715.630657 127.536364 
L 722.890253 127.536364 
L 730.149848 127.536364 
L 737.409444 386.950505 
L 744.66904 137.912929 
L 751.928636 137.912929 
L 759.188232 137.912929 
L 766.447828 137.912929 
L 773.707424 137.912929 
L 780.96702 137.912929 
L 788.226616 137.912929 
L 795.486212 137.912929 
L 802.745808 137.912929 
L 810.005404 137.912929 
L 817.265 137.912929 
" clip-path="url(#p484b5cb628)" style="fill: none; stroke: #008000; stroke-width: 2; stroke-linecap: square"/>
   </g>
   <g id="line2d_25">
    <path d="M 98.565 137.912929 
L 105.824596 148.289495 
L 113.084192 137.912929 
L 120.343788 137.912929 
L 127.603384 127.536364 
L 134.86298 127.536364 
L 142.122576 106.783232 
L 149.382172 179.419192 
L 156.641768 117.159798 
L 163.901364 117.159798 
L 171.16096 117.159798 
L 178.420556 189.795758 
L 185.680152 179.419192 
L 192.939747 137.912929 
L 200.199343 137.912929 
L 207.458939 137.912929 
L 214.718535 137.912929 
L 221.978131 117.159798 
L 229.237727 106.783232 
L 236.497323 106.783232 
L 243.756919 106.783232 
L 251.016515 106.783232 
L 258.276111 96.406667 
L 265.535707 96.406667 
L 272.795303 96.406667 
L 280.054899 86.030101 
L 287.314495 75.653535 
L 294.574091 65.27697 
L 301.833687 54.900404 
L 309.093283 54.900404 
L 316.352879 54.900404 
L 323.612475 44.523838 
L 330.872071 44.523838 
L 338.131667 314.314545 
L 345.391263 303.93798 
L 352.650859 303.93798 
L 359.910455 54.900404 
L 367.170051 44.523838 
L 374.429646 44.523838 
L 381.689242 44.523838 
L 388.948838 34.147273 
L 396.208434 34.147273 
L 403.46803 34.147273 
L 410.727626 335.067677 
L 417.987222 34.147273 
L 425.246818 34.147273 
L 432.506414 34.147273 
L 439.76601 34.147273 
L 447.025606 34.147273 
L 454.285202 34.147273 
L 461.544798 355.820808 
L 468.804394 44.523838 
L 476.06399 355.820808 
L 483.323586 355.820808 
L 490.583182 65.27697 
L 497.842778 355.820808 
L 505.102374 75.653535 
L 512.36197 75.653535 
L 519.621566 75.653535 
L 526.881162 75.653535 
L 534.140758 75.653535 
L 541.400354 75.653535 
L 548.659949 376.573939 
L 555.919545 86.030101 
L 563.179141 86.030101 
L 570.438737 86.030101 
L 577.698333 86.030101 
L 584.957929 397.327071 
L 592.217525 96.406667 
L 599.477121 407.703636 
L 606.736717 106.783232 
L 613.996313 106.783232 
L 621.255909 106.783232 
L 628.515505 438.833333 
L 635.775101 117.159798 
L 643.034697 117.159798 
L 650.294293 117.159798 
L 657.553889 117.159798 
L 664.813485 117.159798 
L 672.073081 117.159798 
L 679.332677 459.586465 
L 686.592273 127.536364 
L 693.851869 127.536364 
L 701.111465 127.536364 
L 708.371061 127.536364 
L 715.630657 127.536364 
L 722.890253 127.536364 
L 730.149848 127.536364 
L 737.409444 501.092727 
L 744.66904 137.912929 
L 751.928636 137.912929 
L 759.188232 137.912929 
L 766.447828 137.912929 
L 773.707424 137.912929 
L 780.96702 137.912929 
L 788.226616 137.912929 
L 795.486212 137.912929 
L 802.745808 137.912929 
L 810.005404 137.912929 
L 817.265 137.912929 
" clip-path="url(#p484b5cb628)" style="fill: none; stroke: #ffa500; stroke-width: 2; stroke-linecap: square"/>
   </g>
   <g id="line2d_26">
    <path d="M 62.63 137.912929 
L 853.2 137.912929 
" clip-path="url(#p484b5cb628)" style="fill: none; stroke-dasharray: 5.55,2.4; stroke-dashoffset: 0; stroke: #000000; stroke-width: 1.5"/>
   </g>
   <g id="patch_3">
    <path d="M 62.63 524.44 
L 62.63 10.8 
" style="fill: none; stroke: #000000; stroke-width: 0.8; stroke-linejoin: miter; stroke-linecap: square"/>
   </g>
   <g id="patch_4">
    <path d="M 853.2 524.44 
L 853.2 10.8 
" style="fill: none; stroke: #000000; stroke-width: 0.8; stroke-linejoin: miter; stroke-linecap: square"/>
   </g>
   <g id="patch_5">
    <path d="M 62.63 524.44 
L 853.2 524.44 
" style="fill: none; stroke: #000000; stroke-width: 0.8; stroke-linejoin: miter; stroke-linecap: square"/>
   </g>
   <g id="patch_6">
    <path d="M 62.63 10.8 
L 853.2 10.8 
" style="fill: none; stroke: #000000; stroke-width: 0.8; stroke-linejoin: miter; stroke-linecap: square"/>
   </g>
   <g id="PathCollection_1">
    <defs>
     <path id="m87fb4cc922" d="M 0 4.472136 
C 1.186024 4.472136 2.323632 4.000923 3.162278 3.162278 
C 4.000923 2.323632 4.472136 1.186024 4.472136 0 
C 4.472136 -1.186024 4.000923 -2.323632 3.162278 -3.162278 
C 2.323632 -4.000923 1.186024 -4.472136 0 -4.472136 
C -1.186024 -4.472136 -2.323632 -4.000923 -3.162278 -3.162278 
C -4.000923 -2.323632 -4.472136 -1.186024 -4.472136 0 
C -4.472136 1.186024 -4.000923 2.323632 -3.162278 3.162278 
C -2.323632 4.000923 -1.186024 4.472136 0 4.472136 
z
" style="stroke: #000000"/>
    </defs>
    <g clip-path="url(#p484b5cb628)">
     <use xlink:href="#m87fb4cc922" x="105.824596" y="137.912929" style="fill: #ff0000; stroke: #000000"/>
     <use xlink:href="#m87fb4cc922" x="149.382172" y="137.912929" style="fill: #ff0000; stroke: #000000"/>
     <use xlink:href="#m87fb4cc922" x="178.420556" y="137.912929" style="fill: #ff0000; stroke: #000000"/>
     <use xlink:href="#m87fb4cc922" x="185.680152" y="137.912929" style="fill: #ff0000; stroke: #000000"/>
     <use xlink:href="#m87fb4cc922" x="338.131667" y="137.912929" style="fill: #ff0000; stroke: #000000"/>
     <use xlink:href="#m87fb4cc922" x="345.391263" y="137.912929" style="fill: #ff0000; stroke: #000000"/>
     <use xlink:href="#m87fb4cc922" x="352.650859" y="137.912929" style="fill: #ff0000; stroke: #000000"/>
     <use xlink:href="#m87fb4cc922" x="410.727626" y="137.912929" style="fill: #ff0000; stroke: #000000"/>
     <use xlink:href="#m87fb4cc922" x="461.544798" y="137.912929" style="fill: #ff0000; stroke: #000000"/>
     <use xlink:href="#m87fb4cc922" x="476.06399" y="137.912929" style="fill: #ff0000; stroke: #000000"/>
     <use xlink:href="#m87fb4cc922" x="483.323586" y="137.912929" style="fill: #ff0000; stroke: #000000"/>
     <use xlink:href="#m87fb4cc922" x="497.842778" y="137.912929" style="fill: #ff0000; stroke: #000000"/>
     <use xlink:href="#m87fb4cc922" x="548.659949" y="137.912929" style="fill: #ff0000; stroke: #000000"/>
     <use xlink:href="#m87fb4cc922" x="584.957929" y="137.912929" style="fill: #ff0000; stroke: #000000"/>
     <use xlink:href="#m87fb4cc922" x="599.477121" y="137.912929" style="fill: #ff0000; stroke: #000000"/>
     <use xlink:href="#m87fb4cc922" x="628.515505" y="137.912929" style="fill: #ff0000; stroke: #000000"/>
     <use xlink:href="#m87fb4cc922" x="679.332677" y="137.912929" style="fill: #ff0000; stroke: #000000"/>
     <use xlink:href="#m87fb4cc922" x="737.409444" y="137.912929" style="fill: #ff0000; stroke: #000000"/>
    </g>
   </g>
   <g id="legend_1">
    <g id="patch_7">
     <path d="M 664.126875 108.46875 
L 844.8 108.46875 
Q 847.2 108.46875 847.2 106.06875 
L 847.2 19.2 
Q 847.2 16.8 844.8 16.8 
L 664.126875 16.8 
Q 661.726875 16.8 661.726875 19.2 
L 661.726875 106.06875 
Q 661.726875 108.46875 664.126875 108.46875 
z
" style="fill: #ffffff; opacity: 0.8; stroke: #cccccc; stroke-linejoin: miter"/>
    </g>
    <g id="line2d_27">
     <path d="M 666.526875 26.518125 
L 678.526875 26.518125 
L 690.526875 26.518125 
" style="fill: none; stroke: #0000ff; stroke-width: 2; stroke-linecap: square"/>
    </g>
    <g id="text_14">
     <!-- α = 0.0 -->
     <g transform="translate(700.126875 30.718125) scale(0.12 -0.12)">
      <defs>
       <path id="DejaVuSans-3b1" d="M 2644 1628 
L 2506 2350 
Q 2366 3091 1809 3091 
Q 1391 3091 1200 2747 
Q 959 2316 959 1747 
Q 959 1059 1194 731 
Q 1431 397 1809 397 
Q 2228 397 2453 1063 
L 2644 1628 
z
M 2966 2584 
L 3275 3500 
L 3788 3500 
L 3147 1603 
L 3272 919 
Q 3300 766 3409 638 
Q 3538 488 3638 488 
L 3913 488 
L 3913 0 
L 3569 0 
Q 3275 0 3013 263 
Q 2884 394 2831 669 
Q 2688 322 2394 50 
Q 2256 -78 1809 -78 
Q 1075 -78 719 397 
Q 353 888 353 1747 
Q 353 2666 750 3097 
Q 1191 3578 1809 3578 
Q 2781 3578 2966 2584 
z
" transform="scale(0.015625)"/>
       <path id="DejaVuSans-3d" d="M 678 2906 
L 4684 2906 
L 4684 2381 
L 678 2381 
L 678 2906 
z
M 678 1631 
L 4684 1631 
L 4684 1100 
L 678 1100 
L 678 1631 
z
" transform="scale(0.015625)"/>
       <path id="DejaVuSans-2e" d="M 684 794 
L 1344 794 
L 1344 0 
L 684 0 
L 684 794 
z
" transform="scale(0.015625)"/>
      </defs>
      <use xlink:href="#DejaVuSans-3b1"/>
      <use xlink:href="#DejaVuSans-20" x="65.917969"/>
      <use xlink:href="#DejaVuSans-3d" x="97.705078"/>
      <use xlink:href="#DejaVuSans-20" x="181.494141"/>
      <use xlink:href="#DejaVuSans-30" x="213.28125"/>
      <use xlink:href="#DejaVuSans-2e" x="276.904297"/>
      <use xlink:href="#DejaVuSans-30" x="308.691406"/>
     </g>
    </g>
    <g id="PathCollection_2">
     <g>
      <use xlink:href="#m87fb4cc922" x="678.526875" y="45.181875" style="fill: #ff0000; stroke: #000000"/>
     </g>
    </g>
    <g id="text_15">
     <!-- Chosen Points (α = 0.0) -->
     <g transform="translate(700.126875 48.331875) scale(0.12 -0.12)">
      <defs>
       <path id="DejaVuSans-43" d="M 4122 4306 
L 4122 3641 
Q 3803 3938 3442 4084 
Q 3081 4231 2675 4231 
Q 1875 4231 1450 3742 
Q 1025 3253 1025 2328 
Q 1025 1406 1450 917 
Q 1875 428 2675 428 
Q 3081 428 3442 575 
Q 3803 722 4122 1019 
L 4122 359 
Q 3791 134 3420 21 
Q 3050 -91 2638 -91 
Q 1578 -91 968 557 
Q 359 1206 359 2328 
Q 359 3453 968 4101 
Q 1578 4750 2638 4750 
Q 3056 4750 3426 4639 
Q 3797 4528 4122 4306 
z
" transform="scale(0.015625)"/>
       <path id="DejaVuSans-68" d="M 3513 2113 
L 3513 0 
L 2938 0 
L 2938 2094 
Q 2938 2591 2744 2837 
Q 2550 3084 2163 3084 
Q 1697 3084 1428 2787 
Q 1159 2491 1159 1978 
L 1159 0 
L 581 0 
L 581 4863 
L 1159 4863 
L 1159 2956 
Q 1366 3272 1645 3428 
Q 1925 3584 2291 3584 
Q 2894 3584 3203 3211 
Q 3513 2838 3513 2113 
z
" transform="scale(0.015625)"/>
       <path id="DejaVuSans-6f" d="M 1959 3097 
Q 1497 3097 1228 2736 
Q 959 2375 959 1747 
Q 959 1119 1226 758 
Q 1494 397 1959 397 
Q 2419 397 2687 759 
Q 2956 1122 2956 1747 
Q 2956 2369 2687 2733 
Q 2419 3097 1959 3097 
z
M 1959 3584 
Q 2709 3584 3137 3096 
Q 3566 2609 3566 1747 
Q 3566 888 3137 398 
Q 2709 -91 1959 -91 
Q 1206 -91 779 398 
Q 353 888 353 1747 
Q 353 2609 779 3096 
Q 1206 3584 1959 3584 
z
" transform="scale(0.015625)"/>
       <path id="DejaVuSans-73" d="M 2834 3397 
L 2834 2853 
Q 2591 2978 2328 3040 
Q 2066 3103 1784 3103 
Q 1356 3103 1142 2972 
Q 928 2841 928 2578 
Q 928 2378 1081 2264 
Q 1234 2150 1697 2047 
L 1894 2003 
Q 2506 1872 2764 1633 
Q 3022 1394 3022 966 
Q 3022 478 2636 193 
Q 2250 -91 1575 -91 
Q 1294 -91 989 -36 
Q 684 19 347 128 
L 347 722 
Q 666 556 975 473 
Q 1284 391 1588 391 
Q 1994 391 2212 530 
Q 2431 669 2431 922 
Q 2431 1156 2273 1281 
Q 2116 1406 1581 1522 
L 1381 1569 
Q 847 1681 609 1914 
Q 372 2147 372 2553 
Q 372 3047 722 3315 
Q 1072 3584 1716 3584 
Q 2034 3584 2315 3537 
Q 2597 3491 2834 3397 
z
" transform="scale(0.015625)"/>
       <path id="DejaVuSans-50" d="M 1259 4147 
L 1259 2394 
L 2053 2394 
Q 2494 2394 2734 2622 
Q 2975 2850 2975 3272 
Q 2975 3691 2734 3919 
Q 2494 4147 2053 4147 
L 1259 4147 
z
M 628 4666 
L 2053 4666 
Q 2838 4666 3239 4311 
Q 3641 3956 3641 3272 
Q 3641 2581 3239 2228 
Q 2838 1875 2053 1875 
L 1259 1875 
L 1259 0 
L 628 0 
L 628 4666 
z
" transform="scale(0.015625)"/>
       <path id="DejaVuSans-74" d="M 1172 4494 
L 1172 3500 
L 2356 3500 
L 2356 3053 
L 1172 3053 
L 1172 1153 
Q 1172 725 1289 603 
Q 1406 481 1766 481 
L 2356 481 
L 2356 0 
L 1766 0 
Q 1100 0 847 248 
Q 594 497 594 1153 
L 594 3053 
L 172 3053 
L 172 3500 
L 594 3500 
L 594 4494 
L 1172 4494 
z
" transform="scale(0.015625)"/>
      </defs>
      <use xlink:href="#DejaVuSans-43"/>
      <use xlink:href="#DejaVuSans-68" x="69.824219"/>
      <use xlink:href="#DejaVuSans-6f" x="133.203125"/>
      <use xlink:href="#DejaVuSans-73" x="194.384766"/>
      <use xlink:href="#DejaVuSans-65" x="246.484375"/>
      <use xlink:href="#DejaVuSans-6e" x="308.007812"/>
      <use xlink:href="#DejaVuSans-20" x="371.386719"/>
      <use xlink:href="#DejaVuSans-50" x="403.173828"/>
      <use xlink:href="#DejaVuSans-6f" x="459.851562"/>
      <use xlink:href="#DejaVuSans-69" x="521.033203"/>
      <use xlink:href="#DejaVuSans-6e" x="548.816406"/>
      <use xlink:href="#DejaVuSans-74" x="612.195312"/>
      <use xlink:href="#DejaVuSans-73" x="651.404297"/>
      <use xlink:href="#DejaVuSans-20" x="703.503906"/>
      <use xlink:href="#DejaVuSans-28" x="735.291016"/>
      <use xlink:href="#DejaVuSans-3b1" x="774.304688"/>
      <use xlink:href="#DejaVuSans-20" x="840.222656"/>
      <use xlink:href="#DejaVuSans-3d" x="872.009766"/>
      <use xlink:href="#DejaVuSans-20" x="955.798828"/>
      <use xlink:href="#DejaVuSans-30" x="987.585938"/>
      <use xlink:href="#DejaVuSans-2e" x="1051.208984"/>
      <use xlink:href="#DejaVuSans-30" x="1082.996094"/>
      <use xlink:href="#DejaVuSans-29" x="1146.619141"/>
     </g>
    </g>
    <g id="line2d_28">
     <path d="M 666.526875 61.745625 
L 678.526875 61.745625 
L 690.526875 61.745625 
" style="fill: none; stroke: #008000; stroke-width: 2; stroke-linecap: square"/>
    </g>
    <g id="text_16">
     <!-- α = 0.5 -->
     <g transform="translate(700.126875 65.945625) scale(0.12 -0.12)">
      <defs>
       <path id="DejaVuSans-35" d="M 691 4666 
L 3169 4666 
L 3169 4134 
L 1269 4134 
L 1269 2991 
Q 1406 3038 1543 3061 
Q 1681 3084 1819 3084 
Q 2600 3084 3056 2656 
Q 3513 2228 3513 1497 
Q 3513 744 3044 326 
Q 2575 -91 1722 -91 
Q 1428 -91 1123 -41 
Q 819 9 494 109 
L 494 744 
Q 775 591 1075 516 
Q 1375 441 1709 441 
Q 2250 441 2565 725 
Q 2881 1009 2881 1497 
Q 2881 1984 2565 2268 
Q 2250 2553 1709 2553 
Q 1456 2553 1204 2497 
Q 953 2441 691 2322 
L 691 4666 
z
" transform="scale(0.015625)"/>
      </defs>
      <use xlink:href="#DejaVuSans-3b1"/>
      <use xlink:href="#DejaVuSans-20" x="65.917969"/>
      <use xlink:href="#DejaVuSans-3d" x="97.705078"/>
      <use xlink:href="#DejaVuSans-20" x="181.494141"/>
      <use xlink:href="#DejaVuSans-30" x="213.28125"/>
      <use xlink:href="#DejaVuSans-2e" x="276.904297"/>
      <use xlink:href="#DejaVuSans-35" x="308.691406"/>
     </g>
    </g>
    <g id="line2d_29">
     <path d="M 666.526875 79.359375 
L 678.526875 79.359375 
L 690.526875 79.359375 
" style="fill: none; stroke: #ffa500; stroke-width: 2; stroke-linecap: square"/>
    </g>
    <g id="text_17">
     <!-- α = 1.0 -->
     <g transform="translate(700.126875 83.559375) scale(0.12 -0.12)">
      <use xlink:href="#DejaVuSans-3b1"/>
      <use xlink:href="#DejaVuSans-20" x="65.917969"/>
      <use xlink:href="#DejaVuSans-3d" x="97.705078"/>
      <use xlink:href="#DejaVuSans-20" x="181.494141"/>
      <use xlink:href="#DejaVuSans-31" x="213.28125"/>
      <use xlink:href="#DejaVuSans-2e" x="276.904297"/>
      <use xlink:href="#DejaVuSans-30" x="308.691406"/>
     </g>
    </g>
    <g id="line2d_30">
     <path d="M 666.526875 96.973125 
L 678.526875 96.973125 
L 690.526875 96.973125 
" style="fill: none; stroke-dasharray: 5.55,2.4; stroke-dashoffset: 0; stroke: #000000; stroke-width: 1.5"/>
    </g>
    <g id="text_18">
     <!-- No Change -->
     <g transform="translate(700.126875 101.173125) scale(0.12 -0.12)">
      <defs>
       <path id="DejaVuSans-4e" d="M 628 4666 
L 1478 4666 
L 3547 763 
L 3547 4666 
L 4159 4666 
L 4159 0 
L 3309 0 
L 1241 3903 
L 1241 0 
L 628 0 
L 628 4666 
z
" transform="scale(0.015625)"/>
      </defs>
      <use xlink:href="#DejaVuSans-4e"/>
      <use xlink:href="#DejaVuSans-6f" x="74.804688"/>
      <use xlink:href="#DejaVuSans-20" x="135.986328"/>
      <use xlink:href="#DejaVuSans-43" x="167.773438"/>
      <use xlink:href="#DejaVuSans-68" x="237.597656"/>
      <use xlink:href="#DejaVuSans-61" x="300.976562"/>
      <use xlink:href="#DejaVuSans-6e" x="362.255859"/>
      <use xlink:href="#DejaVuSans-67" x="425.634766"/>
      <use xlink:href="#DejaVuSans-65" x="489.111328"/>
     </g>
    </g>
   </g>
  </g>
 </g>
 <defs>
  <clipPath id="p484b5cb628">
   <rect x="62.63" y="10.8" width="790.57" height="513.64"/>
  </clipPath>
 </defs>
</svg>
